# xmcd
#
# Track frame offsets:
#	150
#	17678
#	38486
#	57267
#	78259
#	93316
#	115141
#	137378
#	153123
#	177648
#	195967
#	210628
#	229119
#	250898
#
# Disc length: 3627 seconds
#
# Revision: 1
# Processed by: cddbd v1.5.2PL0 Copyright (c) Steve Scherf et al.
# Submitted via: EasyCDDAExtractor 15.3.0.1
#
DISCID=a50e290e
DTITLE=Gloria Estefan - Mis Favoritas
DYEAR=2010
DGENRE=Latin
TTITLE0=Abriendo Puertas
TTITLE1=Con Los Años Que Me Quedan
TTITLE2=Santo Santo (Version Español) (Duo Con So Pra Contrariar)
TTITLE3=Mi Tierra
TTITLE4=Renacer
TTITLE5=En El Jardin (Duo Con Alejandro Fernandez)
TTITLE6=Oye Mi Canto (Version Español)
TTITLE7=No Me Vuelvo A Enamorar
TTITLE8=Por Amor (Duo Con Jon Secada)
TTITLE9=Dame Otra Oportunidad
TTITLE10=Me Odio (Con La Participacion De Fat Joe)
TTITLE11=Desde La Oscuridad (Coming Out Of The Dark) (Version Español)
TTITLE12=Here We Are (Version Portugues)
TTITLE13=No Me Dejes De Querer (''Flores'' Del Caribe Remix)
EXTD=
EXTT0=
EXTT1=
EXTT2=
EXTT3=
EXTT4=
EXTT5=
EXTT6=
EXTT7=
EXTT8=
EXTT9=
EXTT10=
EXTT11=
EXTT12=
EXTT13=
PLAYORDER=
